<svg id="svg" version="1.1" xmlns="http://www.w3.org/2000/svg" xmlns:xlink="http://www.w3.org/1999/xlink" width="400" height="400" viewBox="0, 0, 400,400"><g id="svgg"><path id="path0" d="M264.643 62.461 C 264.311 62.934,255.886 71.533,245.920 81.570 C 235.954 91.606,223.786 103.895,218.881 108.877 L 209.961 117.935 210.281 165.468 C 210.456 191.610,210.600 215.828,210.600 219.284 L 210.600 225.569 196.700 225.829 L 182.800 226.090 182.750 222.345 C 182.722 220.285,182.668 217.070,182.628 215.200 C 182.589 213.330,182.406 190.786,182.221 165.103 L 181.885 118.405 175.842 112.524 C 172.519 109.290,159.852 96.824,147.694 84.822 C 135.535 72.820,125.442 62.951,125.264 62.890 C 125.087 62.830,124.546 64.450,124.064 66.490 C 123.581 68.531,122.545 72.630,121.762 75.600 C 120.978 78.570,119.560 84.081,118.609 87.846 C 117.659 91.611,116.498 95.931,116.030 97.446 C 115.365 99.599,112.678 110.109,112.258 112.200 C 112.214 112.420,112.074 112.780,111.948 113.000 C 111.821 113.220,111.418 114.660,111.052 116.200 C 110.209 119.740,108.400 127.013,107.072 132.200 C 106.509 134.400,105.579 138.180,105.005 140.600 C 104.432 143.020,103.805 145.360,103.612 145.800 C 103.420 146.240,102.461 149.840,101.481 153.800 C 100.501 157.760,99.221 162.890,98.635 165.200 C 98.049 167.510,97.217 170.800,96.785 172.510 C 96.353 174.221,96.000 175.904,96.000 176.250 C 96.000 176.596,95.755 177.446,95.456 178.140 C 95.156 178.833,94.517 181.110,94.034 183.200 C 92.215 191.075,91.529 193.824,91.188 194.600 C 90.872 195.320,87.807 207.584,87.346 209.972 C 87.243 210.507,87.074 211.081,86.970 211.248 C 86.807 211.512,85.828 215.373,84.346 221.600 C 84.111 222.590,83.688 224.210,83.408 225.200 C 82.407 228.735,82.018 230.251,81.151 234.000 C 80.668 236.090,79.935 239.060,79.523 240.600 C 79.110 242.140,78.058 246.280,77.185 249.800 C 74.990 258.647,74.382 260.890,73.962 261.695 C 73.763 262.077,73.600 262.674,73.600 263.021 C 73.600 264.087,71.162 274.118,70.563 275.514 C 70.253 276.236,70.000 277.173,70.000 277.595 C 70.000 278.017,69.839 278.776,69.642 279.281 C 69.445 279.787,68.882 282.000,68.391 284.200 C 67.899 286.400,67.080 289.640,66.570 291.400 C 66.060 293.160,65.005 297.300,64.226 300.600 C 63.446 303.900,62.558 307.410,62.251 308.400 C 61.464 310.942,60.960 312.873,60.006 317.000 C 59.548 318.980,59.000 321.153,58.787 321.828 C 58.215 323.645,58.301 325.200,58.973 325.200 C 59.288 325.200,59.660 324.840,59.800 324.400 C 59.940 323.960,60.201 323.600,60.380 323.600 C 60.560 323.600,60.810 323.285,60.935 322.900 C 61.179 322.154,61.985 320.875,69.200 309.795 C 71.730 305.910,73.980 302.441,74.200 302.087 C 74.420 301.733,76.589 298.373,79.020 294.621 C 81.451 290.870,83.934 286.945,84.537 285.900 C 85.140 284.855,85.806 284.000,86.017 284.000 C 86.228 284.000,86.400 283.816,86.400 283.591 C 86.400 283.367,86.878 282.422,87.462 281.491 C 89.175 278.762,91.373 275.416,91.595 275.200 C 91.708 275.090,92.070 274.516,92.400 273.925 C 93.756 271.496,98.542 264.190,98.859 264.067 C 99.047 263.993,99.200 263.784,99.200 263.602 C 99.200 263.239,109.570 246.952,111.068 244.962 C 111.581 244.281,112.000 243.516,112.000 243.262 C 112.000 243.008,112.180 242.800,112.400 242.800 C 112.620 242.800,112.800 242.624,112.800 242.409 C 112.800 242.193,114.421 239.568,116.402 236.575 C 118.383 233.582,120.743 229.889,121.647 228.367 C 122.551 226.845,123.451 225.600,123.646 225.600 C 123.841 225.600,124.000 225.431,124.000 225.225 C 124.000 225.019,125.935 221.852,128.300 218.188 C 130.665 214.523,133.396 210.237,134.369 208.663 C 135.341 207.088,136.286 205.740,136.469 205.667 C 136.651 205.593,136.800 205.278,136.800 204.967 C 136.800 204.655,136.980 204.400,137.200 204.400 C 137.420 204.400,137.600 204.223,137.600 204.006 C 137.600 203.790,138.725 201.904,140.100 199.815 C 141.475 197.726,143.479 194.618,144.552 192.908 C 146.533 189.756,150.326 183.894,151.666 181.916 C 152.070 181.320,152.400 180.645,152.400 180.416 C 152.400 180.187,152.580 180.000,152.800 180.000 C 153.020 180.000,153.200 179.708,153.200 179.351 C 153.200 178.189,154.297 179.503,154.505 180.914 C 154.761 182.646,156.629 190.097,157.838 194.200 C 158.161 195.300,159.305 199.710,160.378 204.000 C 161.451 208.290,162.856 213.780,163.500 216.200 C 164.145 218.620,164.908 221.680,165.196 223.000 C 165.485 224.320,165.948 225.940,166.225 226.600 C 166.502 227.260,167.297 230.320,167.990 233.400 C 168.684 236.480,169.420 239.413,169.626 239.919 C 169.832 240.424,170.000 241.207,170.000 241.658 C 170.000 242.110,170.245 243.046,170.545 243.740 C 170.844 244.433,171.935 248.510,172.967 252.800 C 174.000 257.090,175.093 261.320,175.395 262.200 C 175.698 263.080,176.507 266.230,177.193 269.200 C 177.880 272.170,178.684 275.230,178.981 276.000 C 179.278 276.770,180.098 279.920,180.803 283.000 C 182.217 289.173,182.446 290.076,183.342 293.000 C 183.678 294.100,184.608 297.700,185.407 301.000 C 186.206 304.300,187.279 308.440,187.791 310.200 C 188.303 311.960,189.104 315.110,189.571 317.200 C 190.494 321.329,191.019 323.329,191.827 325.800 C 192.115 326.680,192.570 328.390,192.839 329.600 C 193.107 330.810,193.658 333.102,194.063 334.693 C 194.468 336.284,194.800 337.949,194.800 338.393 C 194.800 338.837,194.960 339.200,195.156 339.200 C 195.352 339.200,195.600 339.785,195.707 340.500 C 196.671 346.936,198.072 347.546,199.149 342.000 C 199.842 338.434,202.398 327.640,202.766 326.730 C 203.099 325.905,203.944 322.352,205.269 316.200 C 205.506 315.100,205.948 313.403,206.250 312.429 C 206.553 311.455,206.800 310.250,206.800 309.752 C 206.800 309.255,206.980 308.736,207.200 308.600 C 207.420 308.464,207.600 307.990,207.600 307.547 C 207.600 307.104,207.970 305.180,208.422 303.271 C 208.874 301.362,209.441 298.900,209.682 297.800 C 209.923 296.700,210.521 294.360,211.011 292.600 C 211.500 290.840,212.396 287.150,213.001 284.400 C 213.606 281.650,214.452 278.140,214.880 276.600 C 215.308 275.060,216.023 272.180,216.469 270.200 C 216.915 268.220,217.444 265.880,217.643 265.000 C 217.843 264.120,218.120 262.770,218.260 262.000 C 218.399 261.230,218.750 260.128,219.040 259.551 C 219.331 258.974,219.612 257.849,219.666 257.051 C 219.720 256.253,219.907 255.600,220.082 255.600 C 220.257 255.600,220.400 255.195,220.399 254.700 C 220.399 253.755,221.513 248.676,222.833 243.600 C 223.263 241.950,224.402 237.270,225.366 233.200 C 226.329 229.130,227.475 224.450,227.911 222.800 C 228.692 219.844,230.034 214.113,230.861 210.200 C 231.094 209.100,231.535 207.609,231.842 206.886 C 232.149 206.164,232.400 205.137,232.400 204.605 C 232.400 204.073,232.563 203.224,232.762 202.719 C 232.961 202.213,233.342 200.720,233.608 199.400 C 233.874 198.080,234.231 196.460,234.400 195.800 C 234.569 195.140,234.928 193.520,235.196 192.200 C 235.464 190.880,235.836 189.440,236.022 189.000 C 236.441 188.006,237.421 183.968,237.792 181.702 C 238.102 179.806,238.668 179.175,239.072 180.275 C 239.219 180.674,240.117 182.124,241.069 183.498 C 242.021 184.872,242.800 186.092,242.800 186.208 C 242.800 186.325,244.374 188.801,246.298 191.710 C 248.221 194.620,249.886 197.180,249.998 197.400 C 250.109 197.620,250.736 198.610,251.392 199.600 C 252.047 200.590,252.767 201.701,252.992 202.068 C 253.216 202.435,255.187 205.495,257.370 208.868 C 259.554 212.241,262.623 216.980,264.190 219.400 C 265.756 221.820,268.424 225.960,270.117 228.600 C 271.811 231.240,273.377 233.617,273.598 233.883 C 273.819 234.149,274.000 234.471,274.000 234.600 C 274.000 234.729,274.185 235.051,274.411 235.317 C 274.636 235.583,275.379 236.700,276.062 237.800 C 276.744 238.900,278.179 241.091,279.251 242.670 C 280.323 244.248,281.200 245.641,281.200 245.766 C 281.200 245.890,282.434 247.839,283.942 250.096 C 285.449 252.353,289.798 259.060,293.605 265.000 C 297.413 270.940,300.831 276.250,301.201 276.800 C 302.866 279.274,305.015 282.636,305.163 283.000 C 305.253 283.220,306.738 285.510,308.463 288.088 C 310.189 290.667,311.600 292.962,311.600 293.188 C 311.600 293.415,311.741 293.600,311.914 293.600 C 312.086 293.600,312.563 294.185,312.973 294.900 C 313.663 296.103,317.105 301.497,322.276 309.479 C 323.444 311.282,324.400 312.947,324.400 313.179 C 324.400 313.411,324.535 313.603,324.700 313.608 C 324.865 313.612,326.350 315.768,328.000 318.400 C 332.257 325.190,333.200 325.133,331.291 318.200 C 330.867 316.660,330.113 313.600,329.614 311.400 C 329.116 309.200,328.560 307.040,328.379 306.600 C 328.069 305.848,326.342 299.049,322.179 282.200 C 321.201 278.240,320.145 274.190,319.833 273.200 C 319.520 272.210,318.890 269.825,318.432 267.900 C 316.540 259.945,315.885 257.309,315.376 255.600 C 314.638 253.123,314.176 251.315,312.972 246.200 C 312.403 243.780,311.834 241.530,311.708 241.200 C 311.426 240.461,311.629 241.256,309.414 232.200 C 308.392 228.020,307.316 223.880,307.023 223.000 C 306.730 222.120,306.103 219.690,305.629 217.600 C 304.727 213.623,303.526 208.791,302.597 205.400 C 301.374 200.939,299.143 192.168,296.951 183.200 C 294.543 173.354,294.528 173.293,294.081 172.066 C 293.868 171.480,293.285 169.200,292.786 167.000 C 292.286 164.800,291.535 161.740,291.116 160.200 C 290.698 158.660,290.290 157.130,290.211 156.800 C 290.132 156.470,289.861 155.390,289.608 154.400 C 289.356 153.410,288.460 149.900,287.619 146.600 C 286.777 143.300,285.821 139.610,285.494 138.400 C 285.167 137.190,284.413 134.130,283.819 131.600 C 283.224 129.070,282.584 126.460,282.397 125.800 C 282.209 125.140,281.775 123.610,281.432 122.400 C 281.090 121.190,280.349 118.220,279.786 115.800 C 279.223 113.380,278.613 111.040,278.431 110.600 C 278.248 110.160,277.521 107.370,276.814 104.400 C 276.106 101.430,275.173 97.830,274.740 96.400 C 274.307 94.970,273.787 92.990,273.584 92.000 C 273.382 91.010,272.500 87.500,271.624 84.200 C 270.749 80.900,269.086 74.465,267.929 69.900 C 265.744 61.283,265.637 61.040,264.643 62.461 " stroke="none" fill="#fff" fill-rule="evenodd"></path></g></svg>